<svg width="11" height="19" viewBox="0 0 11 19" fill="none" xmlns="http://www.w3.org/2000/svg">
<path d="M11 1.5C11 1.36739 10.9473 1.24021 10.8536 1.14645C10.7598 1.05268 10.6326 1 10.5 1H8C6.74112 0.937291 5.5086 1.37539 4.57172 2.21858C3.63485 3.06177 3.06978 4.2415 3 5.5V8.2H0.5C0.367392 8.2 0.240215 8.25268 0.146447 8.34645C0.0526785 8.44022 0 8.56739 0 8.7V11.3C0 11.4326 0.0526785 11.5598 0.146447 11.6536C0.240215 11.7473 0.367392 11.8 0.5 11.8H3V18.5C3 18.6326 3.05268 18.7598 3.14645 18.8536C3.24021 18.9473 3.36739 19 3.5 19H6.5C6.63261 19 6.75979 18.9473 6.85355 18.8536C6.94732 18.7598 7 18.6326 7 18.5V11.8H9.62C9.73119 11.8016 9.83974 11.7661 9.92848 11.6991C10.0172 11.6321 10.0811 11.5374 10.11 11.43L10.83 8.83C10.8499 8.75612 10.8526 8.67866 10.8378 8.60359C10.8231 8.52852 10.7913 8.45783 10.7449 8.39697C10.6985 8.33611 10.6388 8.28671 10.5704 8.25256C10.5019 8.21841 10.4265 8.20043 10.35 8.2H7V5.5C7.02487 5.25248 7.14111 5.02311 7.32602 4.85669C7.51093 4.69027 7.75123 4.59875 8 4.6H10.5C10.6326 4.6 10.7598 4.54732 10.8536 4.45355C10.9473 4.35979 11 4.23261 11 4.1V1.5Z" fill="white"/>
</svg>
